<?xml version="1.0" encoding="UTF-8" standalone="no"?>
<!-- Created with Inkscape (http://www.inkscape.org/) -->

<svg
   xml:space="preserve"
   id="svg5"
   version="1.1"
   viewBox="0 0 100.0 22.042358"
   height="22.042358mm"
   width="100.0mm"
   xmlns="http://www.w3.org/2000/svg"
   xmlns:svg="http://www.w3.org/2000/svg"><defs
     id="defs2"><rect
       x="245.93419"
       y="458.89838"
       width="447.82816"
       height="206.1962"
       id="rect390" /></defs><g
     id="layer1"
     transform="translate(-48.868734,-136.7846)"><path
       d="m 64.387596,146.82661 c -0.281694,-0.36753 -0.624551,-0.68582 -0.942976,-1.00422 -0.820486,-0.73479 -1.75123,-1.26139 -2.534973,-2.03292 -1.824719,-1.78795 -2.228848,-4.73932 -1.06545,-7.00486 -1.163398,0.28189 -2.179833,0.91846 -3.04932,1.61652 -3.171808,2.54722 -4.420936,7.04162 -2.926886,10.89923 0.04897,0.1226 0.09795,0.24485 0.09795,0.40408 0,0.26936 -0.183707,0.51432 -0.428603,0.61228 -0.28164,0.12259 -0.575577,0.049 -0.808255,-0.14711 -0.07346,-0.0611 -0.122438,-0.12259 -0.171437,-0.20828 -1.383846,-1.7512 -1.604282,-4.26173 -0.67355,-6.2701 -2.045141,1.66549 -3.15955,4.48212 -3.00035,7.13961 0.07351,0.61228 0.146956,1.22463 0.355147,1.83689 0.171445,0.73482 0.5021,1.4696 0.869484,2.11864 1.322603,2.11864 3.612668,3.63715 6.074179,3.94334 2.620719,0.33047 5.425129,-0.14711 7.433527,-1.95941 2.241077,-2.03289 3.024847,-5.2904 1.873692,-8.08257 l -0.159218,-0.31843 c -0.257166,-0.56329 -0.942975,-1.54301 -0.942975,-1.54301 m -3.869846,7.71516 c -0.342871,0.29391 -0.906218,0.61235 -1.34709,0.73478 -1.371589,0.48988 -2.74318,-0.19581 -3.551435,-1.00417 1.457306,-0.34297 2.326807,-1.42058 2.583987,-2.51052 0.20818,-0.9797 -0.183719,-1.78795 -0.342884,-2.73091 -0.146956,-0.90624 -0.122438,-1.67775 0.208179,-2.52276 0.232693,0.46536 0.477602,0.9307 0.771525,1.29814 0.942962,1.22462 2.42477,1.76346 2.743181,3.42894 0.04898,0.17127 0.07346,0.34298 0.07346,0.52659 0.03653,1.00422 -0.404115,2.10635 -1.13891,2.77991 z"
       id="path169"
       style="fill:#4d77cf;fill-opacity:1;stroke-width:1.225;stroke-dasharray:none" /><text
       xml:space="preserve"
       transform="matrix(1.228694,0,0,1.228694,-235.73898,-422.03268)"
       id="text388"
       style="font-style:normal;font-variant:normal;font-weight:500;font-stretch:normal;font-size:12.1864px;font-family:'Fira Sans';-inkscape-font-specification:'Fira Sans,  weight=250';font-variant-ligatures:normal;font-variant-caps:normal;font-variant-numeric:normal;font-variant-east-asian:normal;white-space:pre;shape-inside:url(#rect390);display:inline;fill:#013243;fill-opacity:1"><tspan
         x="245.93359"
         y="469.91697"
         id="tspan11166">TorchANI 3
</tspan></text></g></svg>
