<?xml version="1.0" encoding="UTF-8" standalone="no"?>
<!-- Created with Inkscape (http://www.inkscape.org/) -->

<svg
   inkscape:version="1.2.2 (b0a8486541, 2022-12-01)"
   sodipodi:docname="tenative-torchani-logo-v2.svg"
   xml:space="preserve"
   id="svg5"
   version="1.1"
   viewBox="0 0 77.927078 22.042358"
   height="22.042358mm"
   width="77.927078mm"
   xmlns:inkscape="http://www.inkscape.org/namespaces/inkscape"
   xmlns:sodipodi="http://sodipodi.sourceforge.net/DTD/sodipodi-0.dtd"
   xmlns="http://www.w3.org/2000/svg"
   xmlns:svg="http://www.w3.org/2000/svg"><sodipodi:namedview
     id="namedview7"
     pagecolor="#ffffff"
     bordercolor="#000000"
     borderopacity="0.25"
     inkscape:showpageshadow="2"
     inkscape:pageopacity="0.0"
     inkscape:pagecheckerboard="0"
     inkscape:deskcolor="#d1d1d1"
     inkscape:document-units="mm"
     showgrid="false"
     showguides="true"
     inkscape:zoom="2.3938492"
     inkscape:cx="339.62039"
     inkscape:cy="605.92789"
     inkscape:window-width="1920"
     inkscape:window-height="1011"
     inkscape:window-x="0"
     inkscape:window-y="32"
     inkscape:window-maximized="1"
     inkscape:current-layer="layer1"><sodipodi:guide
       position="19.204518,89.906137"
       orientation="0,-1"
       id="guide1271"
       inkscape:locked="false" /></sodipodi:namedview><defs
     id="defs2"><rect
       x="245.93419"
       y="458.89838"
       width="447.82816"
       height="206.1962"
       id="rect390-0-6" /></defs><g
     inkscape:label="Layer 1"
     inkscape:groupmode="layer"
     id="layer1"
     transform="translate(-46.656846,-223.34483)"><path
       d="m 62.175757,233.38683 c -0.2817,-0.36753 -0.62455,-0.68582 -0.94298,-1.00422 -0.82049,-0.73479 -1.75123,-1.26139 -2.53497,-2.03292 -1.82472,-1.78795 -2.22885,-4.73932 -1.06545,-7.00486 -1.1634,0.28189 -2.17984,0.91846 -3.04932,1.61652 -3.17181,2.54722 -4.42094,7.04162 -2.92689,10.89923 0.049,0.1226 0.0979,0.24485 0.0979,0.40408 0,0.26936 -0.18371,0.51432 -0.4286,0.61228 -0.28164,0.12259 -0.57558,0.049 -0.80826,-0.14711 -0.0735,-0.0611 -0.12244,-0.12259 -0.17143,-0.20828 -1.38385,-1.7512 -1.60429,-4.26173 -0.67355,-6.2701 -2.04515,1.66549 -3.15955,4.48212 -3.00035,7.13961 0.0735,0.61228 0.14695,1.22463 0.35514,1.83689 0.17145,0.73482 0.5021,1.4696 0.86949,2.11864 1.3226,2.11864 3.61266,3.63715 6.07418,3.94334 2.62071,0.33047 5.42512,-0.14711 7.43352,-1.95941 2.24108,-2.03289 3.02485,-5.2904 1.8737,-8.08257 l -0.15922,-0.31843 c -0.25717,-0.56329 -0.94298,-1.54301 -0.94298,-1.54301 m -3.86984,7.71516 c -0.34287,0.29391 -0.90622,0.61235 -1.34709,0.73478 -1.37159,0.48988 -2.74318,-0.19581 -3.55144,-1.00417 1.45731,-0.34297 2.32681,-1.42058 2.58399,-2.51052 0.20818,-0.9797 -0.18372,-1.78795 -0.34289,-2.73091 -0.14695,-0.90624 -0.12243,-1.67775 0.20818,-2.52276 0.2327,0.46536 0.47761,0.9307 0.77153,1.29814 0.94296,1.22462 2.42477,1.76346 2.74318,3.42894 0.049,0.17127 0.0735,0.34298 0.0735,0.52659 0.0365,1.00422 -0.40412,2.10635 -1.13891,2.77991 z"
       id="path169-9-3"
       style="fill:#4d77cf;fill-opacity:1;stroke-width:1.225;stroke-dasharray:none"
       inkscape:export-filename="torchani-logo-dark.svg"
       inkscape:export-xdpi="400"
       inkscape:export-ydpi="400" /><text
       xml:space="preserve"
       transform="matrix(1.228694,0,0,1.228694,-237.95081,-335.47246)"
       id="text388-3-5"
       style="font-style:normal;font-variant:normal;font-weight:500;font-stretch:normal;font-size:12.1864px;font-family:'Fira Sans';-inkscape-font-specification:'Fira Sans,  weight=250';font-variant-ligatures:normal;font-variant-caps:normal;font-variant-numeric:normal;font-variant-east-asian:normal;white-space:pre;shape-inside:url(#rect390-0-6);display:inline;fill:#fafafa;fill-opacity:1"><tspan
         x="245.93359"
         y="469.91697"
         id="tspan471">TorchANI 
</tspan></text></g></svg>
